# xmcd
#
# Track frame offsets:
#   150
#   29138
#   52481
#   104360
#   130652
#   161109
#   178932
#   246106
#   294257
#
# Disc length: 4234 seconds
#
# Revision: 0
# Processed by: cddbd v1.5.1PL2 Copyright (c) Steve Scherf et al.
# Submitted via: CD-Datenbank 4.*
#
DISCID=89108809
DTITLE=Rory Gallagher - Live In Europe
DYEAR=1972
DGENRE=Blues
TTITLE0=Messin' With The Kid
TTITLE1=Laundromat
TTITLE2=I Could've Had Religion
TTITLE3=Pistol Slapper Blues
TTITLE4=Going To My Home Town
TTITLE5=In Your Town
TTITLE6=What In The World
TTITLE7=Hoodoo Man
TTITLE8=Bullfrog Blues
EXTD=
EXTT0=
EXTT1=
EXTT2=
EXTT3=
EXTT4=
EXTT5=
EXTT6=
EXTT7=
EXTT8=
PLAYORDER=
